<mxfile host="app.diagrams.net" modified="2021-12-23T09:06:22.576Z" agent="5.0 (Windows NT 10.0; Win64; x64) AppleWebKit/537.36 (KHTML, like Gecko) Chrome/96.0.4664.110 Safari/537.36 Edg/96.0.1054.57" etag="yL1p1zmfixT1aNuDCcSI" version="15.9.6" type="github">
  <diagram id="cZbGrN_7bTFbr9CBl1-8" name="Page-1">
    <mxGraphModel dx="782" dy="436" grid="1" gridSize="10" guides="1" tooltips="1" connect="1" arrows="1" fold="1" page="1" pageScale="1" pageWidth="827" pageHeight="1169" math="0" shadow="0">
      <root>
        <mxCell id="0" />
        <mxCell id="1" parent="0" />
        <mxCell id="dkSln4Yl63ti-yWi4KoC-1" value="" style="rounded=0;whiteSpace=wrap;html=1;fontSize=16;" vertex="1" parent="1">
          <mxGeometry x="520" y="120" width="200" height="280" as="geometry" />
        </mxCell>
        <mxCell id="dkSln4Yl63ti-yWi4KoC-2" value="" style="rounded=0;whiteSpace=wrap;html=1;" vertex="1" parent="1">
          <mxGeometry x="360" y="120" width="80" height="40" as="geometry" />
        </mxCell>
        <mxCell id="dkSln4Yl63ti-yWi4KoC-3" value="demoA&lt;br&gt;demoB" style="rounded=0;whiteSpace=wrap;html=1;fillColor=#e1d5e7;strokeColor=#9673a6;" vertex="1" parent="1">
          <mxGeometry x="360" y="160" width="80" height="40" as="geometry" />
        </mxCell>
        <mxCell id="dkSln4Yl63ti-yWi4KoC-4" value="" style="rounded=0;whiteSpace=wrap;html=1;" vertex="1" parent="1">
          <mxGeometry x="360" y="200" width="80" height="40" as="geometry" />
        </mxCell>
        <mxCell id="dkSln4Yl63ti-yWi4KoC-5" value="" style="rounded=0;whiteSpace=wrap;html=1;" vertex="1" parent="1">
          <mxGeometry x="360" y="240" width="80" height="40" as="geometry" />
        </mxCell>
        <mxCell id="dkSln4Yl63ti-yWi4KoC-6" value="" style="rounded=0;whiteSpace=wrap;html=1;" vertex="1" parent="1">
          <mxGeometry x="360" y="280" width="80" height="40" as="geometry" />
        </mxCell>
        <mxCell id="dkSln4Yl63ti-yWi4KoC-7" value="" style="rounded=0;whiteSpace=wrap;html=1;" vertex="1" parent="1">
          <mxGeometry x="360" y="320" width="80" height="40" as="geometry" />
        </mxCell>
        <mxCell id="dkSln4Yl63ti-yWi4KoC-8" value="&lt;span&gt;demoD&lt;/span&gt;" style="rounded=0;whiteSpace=wrap;html=1;fillColor=#e1d5e7;strokeColor=#9673a6;" vertex="1" parent="1">
          <mxGeometry x="360" y="360" width="80" height="40" as="geometry" />
        </mxCell>
        <mxCell id="dkSln4Yl63ti-yWi4KoC-9" value="" style="rounded=0;whiteSpace=wrap;html=1;" vertex="1" parent="1">
          <mxGeometry x="360" y="400" width="80" height="40" as="geometry" />
        </mxCell>
        <mxCell id="dkSln4Yl63ti-yWi4KoC-10" value="&lt;font style=&quot;font-size: 16px&quot;&gt;栈&lt;/font&gt;" style="text;html=1;align=center;verticalAlign=middle;resizable=0;points=[];autosize=1;strokeColor=none;fillColor=none;" vertex="1" parent="1">
          <mxGeometry x="385" y="90" width="30" height="20" as="geometry" />
        </mxCell>
        <mxCell id="dkSln4Yl63ti-yWi4KoC-11" value="&lt;span style=&quot;font-size: 16px&quot;&gt;堆&lt;/span&gt;" style="text;html=1;align=center;verticalAlign=middle;resizable=0;points=[];autosize=1;strokeColor=none;fillColor=none;" vertex="1" parent="1">
          <mxGeometry x="605" y="90" width="30" height="20" as="geometry" />
        </mxCell>
        <mxCell id="dkSln4Yl63ti-yWi4KoC-12" value="&lt;font style=&quot;font-size: 15px&quot;&gt;DemoB的实例对象&lt;br&gt;(new DemoB())&lt;/font&gt;" style="rounded=1;whiteSpace=wrap;html=1;fontSize=16;fillColor=#dae8fc;strokeColor=#6c8ebf;" vertex="1" parent="1">
          <mxGeometry x="550" y="220" width="140" height="50" as="geometry" />
        </mxCell>
        <mxCell id="dkSln4Yl63ti-yWi4KoC-13" value="&lt;font style=&quot;font-size: 15px&quot;&gt;DemoD的实例对象&lt;br&gt;(new DemoD())&lt;/font&gt;" style="rounded=1;whiteSpace=wrap;html=1;fontSize=16;fillColor=#dae8fc;strokeColor=#6c8ebf;" vertex="1" parent="1">
          <mxGeometry x="550" y="340" width="140" height="50" as="geometry" />
        </mxCell>
        <mxCell id="dkSln4Yl63ti-yWi4KoC-14" value="&lt;font style=&quot;font-size: 16px&quot;&gt;OopMap&lt;/font&gt;" style="text;html=1;align=center;verticalAlign=middle;resizable=0;points=[];autosize=1;strokeColor=none;fillColor=none;" vertex="1" parent="1">
          <mxGeometry x="120" y="90" width="80" height="20" as="geometry" />
        </mxCell>
        <mxCell id="dkSln4Yl63ti-yWi4KoC-15" value="&lt;span style=&quot;font-size: 16px&quot;&gt;方法区&lt;/span&gt;" style="text;html=1;align=center;verticalAlign=middle;resizable=0;points=[];autosize=1;strokeColor=none;fillColor=none;" vertex="1" parent="1">
          <mxGeometry x="590" y="410" width="60" height="20" as="geometry" />
        </mxCell>
        <mxCell id="dkSln4Yl63ti-yWi4KoC-16" value="" style="rounded=0;whiteSpace=wrap;html=1;" vertex="1" parent="1">
          <mxGeometry x="360" y="440" width="80" height="40" as="geometry" />
        </mxCell>
        <mxCell id="dkSln4Yl63ti-yWi4KoC-17" value="" style="rounded=0;whiteSpace=wrap;html=1;" vertex="1" parent="1">
          <mxGeometry x="360" y="480" width="80" height="40" as="geometry" />
        </mxCell>
        <mxCell id="dkSln4Yl63ti-yWi4KoC-18" value="" style="rounded=0;whiteSpace=wrap;html=1;fontSize=16;" vertex="1" parent="1">
          <mxGeometry x="520" y="440" width="200" height="80" as="geometry" />
        </mxCell>
        <mxCell id="dkSln4Yl63ti-yWi4KoC-19" value="栈帧1" style="text;html=1;align=center;verticalAlign=middle;resizable=0;points=[];autosize=1;strokeColor=none;fillColor=none;" vertex="1" parent="1">
          <mxGeometry x="310" y="450" width="50" height="20" as="geometry" />
        </mxCell>
        <mxCell id="dkSln4Yl63ti-yWi4KoC-20" value="栈帧2" style="text;html=1;align=center;verticalAlign=middle;resizable=0;points=[];autosize=1;strokeColor=none;fillColor=none;" vertex="1" parent="1">
          <mxGeometry x="310" y="410" width="50" height="20" as="geometry" />
        </mxCell>
        <mxCell id="dkSln4Yl63ti-yWi4KoC-21" value="栈帧3" style="text;html=1;align=center;verticalAlign=middle;resizable=0;points=[];autosize=1;strokeColor=none;fillColor=none;" vertex="1" parent="1">
          <mxGeometry x="310" y="370" width="50" height="20" as="geometry" />
        </mxCell>
        <mxCell id="dkSln4Yl63ti-yWi4KoC-22" value="栈帧4" style="text;html=1;align=center;verticalAlign=middle;resizable=0;points=[];autosize=1;strokeColor=none;fillColor=none;" vertex="1" parent="1">
          <mxGeometry x="310" y="330" width="50" height="20" as="geometry" />
        </mxCell>
        <mxCell id="dkSln4Yl63ti-yWi4KoC-23" value="栈帧5" style="text;html=1;align=center;verticalAlign=middle;resizable=0;points=[];autosize=1;strokeColor=none;fillColor=none;" vertex="1" parent="1">
          <mxGeometry x="310" y="290" width="50" height="20" as="geometry" />
        </mxCell>
        <mxCell id="dkSln4Yl63ti-yWi4KoC-24" value="栈帧6" style="text;html=1;align=center;verticalAlign=middle;resizable=0;points=[];autosize=1;strokeColor=none;fillColor=none;" vertex="1" parent="1">
          <mxGeometry x="310" y="250" width="50" height="20" as="geometry" />
        </mxCell>
        <mxCell id="dkSln4Yl63ti-yWi4KoC-25" value="栈帧7" style="text;html=1;align=center;verticalAlign=middle;resizable=0;points=[];autosize=1;strokeColor=none;fillColor=none;" vertex="1" parent="1">
          <mxGeometry x="310" y="210" width="50" height="20" as="geometry" />
        </mxCell>
        <mxCell id="dkSln4Yl63ti-yWi4KoC-26" value="栈帧8" style="text;html=1;align=center;verticalAlign=middle;resizable=0;points=[];autosize=1;strokeColor=none;fillColor=none;" vertex="1" parent="1">
          <mxGeometry x="310" y="170" width="50" height="20" as="geometry" />
        </mxCell>
        <mxCell id="dkSln4Yl63ti-yWi4KoC-27" value="栈帧9" style="text;html=1;align=center;verticalAlign=middle;resizable=0;points=[];autosize=1;strokeColor=none;fillColor=none;" vertex="1" parent="1">
          <mxGeometry x="310" y="130" width="50" height="20" as="geometry" />
        </mxCell>
        <mxCell id="dkSln4Yl63ti-yWi4KoC-28" value="栈帧0" style="text;html=1;align=center;verticalAlign=middle;resizable=0;points=[];autosize=1;strokeColor=none;fillColor=none;" vertex="1" parent="1">
          <mxGeometry x="310" y="490" width="50" height="20" as="geometry" />
        </mxCell>
        <mxCell id="dkSln4Yl63ti-yWi4KoC-29" style="rounded=0;orthogonalLoop=1;jettySize=auto;html=1;fontSize=11;exitX=1;exitY=0.5;exitDx=0;exitDy=0;" edge="1" parent="1" source="dkSln4Yl63ti-yWi4KoC-30" target="dkSln4Yl63ti-yWi4KoC-3">
          <mxGeometry relative="1" as="geometry" />
        </mxCell>
        <mxCell id="dkSln4Yl63ti-yWi4KoC-30" value="&lt;font style=&quot;font-size: 14px&quot;&gt;栈帧8&lt;br&gt;起始地址：M&lt;br&gt;&lt;br&gt;偏移量为a存放：demoA&lt;br&gt;地址：M + a&lt;br&gt;&lt;br&gt;偏移量为b存放：demoB&lt;br&gt;地址：M + b&lt;br&gt;&lt;br&gt;demoA中偏移量为c存放：demoC&lt;br&gt;地址：M + a + c&lt;/font&gt;" style="rounded=0;whiteSpace=wrap;html=1;" vertex="1" parent="1">
          <mxGeometry x="80" y="120" width="160" height="240" as="geometry" />
        </mxCell>
        <mxCell id="dkSln4Yl63ti-yWi4KoC-31" value="&lt;font style=&quot;font-size: 14px&quot;&gt;DemoA.class&lt;/font&gt;" style="rounded=1;whiteSpace=wrap;html=1;fontSize=16;fillColor=#d5e8d4;strokeColor=#82b366;" vertex="1" parent="1">
          <mxGeometry x="525" y="454" width="90" height="20" as="geometry" />
        </mxCell>
        <mxCell id="dkSln4Yl63ti-yWi4KoC-32" value="&lt;font style=&quot;font-size: 14px&quot;&gt;DemoB.class&lt;/font&gt;" style="rounded=1;whiteSpace=wrap;html=1;fontSize=16;fillColor=#d5e8d4;strokeColor=#82b366;" vertex="1" parent="1">
          <mxGeometry x="625" y="454" width="90" height="20" as="geometry" />
        </mxCell>
        <mxCell id="dkSln4Yl63ti-yWi4KoC-33" style="edgeStyle=none;rounded=0;orthogonalLoop=1;jettySize=auto;html=1;entryX=0;entryY=0.75;entryDx=0;entryDy=0;fontSize=11;exitX=1;exitY=0.5;exitDx=0;exitDy=0;" edge="1" parent="1" source="dkSln4Yl63ti-yWi4KoC-34" target="dkSln4Yl63ti-yWi4KoC-8">
          <mxGeometry relative="1" as="geometry" />
        </mxCell>
        <mxCell id="dkSln4Yl63ti-yWi4KoC-34" value="&lt;font style=&quot;font-size: 14px&quot;&gt;栈帧3&lt;br&gt;起始地址：N&lt;br&gt;&lt;br&gt;偏移量为c存放：demoC&lt;br&gt;地址：N + c&lt;/font&gt;" style="rounded=0;whiteSpace=wrap;html=1;" vertex="1" parent="1">
          <mxGeometry x="80" y="400" width="160" height="120" as="geometry" />
        </mxCell>
        <mxCell id="dkSln4Yl63ti-yWi4KoC-35" value="&lt;font style=&quot;font-size: 15px&quot;&gt;DemoC的实例对象&lt;br&gt;(new DemoC())&lt;/font&gt;" style="rounded=1;whiteSpace=wrap;html=1;fontSize=16;fillColor=#dae8fc;strokeColor=#6c8ebf;" vertex="1" parent="1">
          <mxGeometry x="550" y="280" width="140" height="50" as="geometry" />
        </mxCell>
        <mxCell id="dkSln4Yl63ti-yWi4KoC-36" style="edgeStyle=orthogonalEdgeStyle;rounded=0;orthogonalLoop=1;jettySize=auto;html=1;entryX=1;entryY=0.5;entryDx=0;entryDy=0;fontSize=11;exitX=1;exitY=0.5;exitDx=0;exitDy=0;" edge="1" parent="1" source="dkSln4Yl63ti-yWi4KoC-43" target="dkSln4Yl63ti-yWi4KoC-35">
          <mxGeometry relative="1" as="geometry" />
        </mxCell>
        <mxCell id="dkSln4Yl63ti-yWi4KoC-37" style="rounded=0;orthogonalLoop=1;jettySize=auto;html=1;fontSize=16;exitX=0.75;exitY=0.25;exitDx=0;exitDy=0;exitPerimeter=0;entryX=0;entryY=0.5;entryDx=0;entryDy=0;" edge="1" parent="1" target="dkSln4Yl63ti-yWi4KoC-42">
          <mxGeometry relative="1" as="geometry">
            <mxPoint x="420" y="173" as="sourcePoint" />
            <mxPoint x="471.68141592920347" y="100" as="targetPoint" />
          </mxGeometry>
        </mxCell>
        <mxCell id="dkSln4Yl63ti-yWi4KoC-38" style="rounded=0;orthogonalLoop=1;jettySize=auto;html=1;entryX=0;entryY=0.5;entryDx=0;entryDy=0;fontSize=16;" edge="1" parent="1" target="dkSln4Yl63ti-yWi4KoC-12">
          <mxGeometry relative="1" as="geometry">
            <mxPoint x="420" y="187" as="sourcePoint" />
            <mxPoint x="550" y="242" as="targetPoint" />
          </mxGeometry>
        </mxCell>
        <mxCell id="dkSln4Yl63ti-yWi4KoC-39" value="&lt;font style=&quot;font-size: 14px&quot;&gt;DemoC.class&lt;/font&gt;" style="rounded=1;whiteSpace=wrap;html=1;fontSize=16;fillColor=#d5e8d4;strokeColor=#82b366;" vertex="1" parent="1">
          <mxGeometry x="525" y="486" width="90" height="20" as="geometry" />
        </mxCell>
        <mxCell id="dkSln4Yl63ti-yWi4KoC-40" value="&lt;font style=&quot;font-size: 14px&quot;&gt;DemoD.class&lt;/font&gt;" style="rounded=1;whiteSpace=wrap;html=1;fontSize=16;fillColor=#d5e8d4;strokeColor=#82b366;" vertex="1" parent="1">
          <mxGeometry x="625" y="486" width="90" height="20" as="geometry" />
        </mxCell>
        <mxCell id="dkSln4Yl63ti-yWi4KoC-41" style="edgeStyle=none;rounded=0;orthogonalLoop=1;jettySize=auto;html=1;entryX=0;entryY=0.5;entryDx=0;entryDy=0;fontSize=16;" edge="1" parent="1" target="dkSln4Yl63ti-yWi4KoC-13">
          <mxGeometry relative="1" as="geometry">
            <mxPoint x="420" y="380" as="sourcePoint" />
          </mxGeometry>
        </mxCell>
        <mxCell id="dkSln4Yl63ti-yWi4KoC-42" value="&lt;font style=&quot;font-size: 15px&quot;&gt;DemoB的实例对象&lt;br&gt;(new DemoB())&lt;br&gt;&lt;br&gt;&lt;/font&gt;" style="rounded=1;whiteSpace=wrap;html=1;fontSize=16;fillColor=#dae8fc;strokeColor=#6c8ebf;" vertex="1" parent="1">
          <mxGeometry x="550" y="130" width="140" height="80" as="geometry" />
        </mxCell>
        <mxCell id="dkSln4Yl63ti-yWi4KoC-43" value="&lt;font style=&quot;font-size: 11px&quot;&gt;demoC=new DemoC()&lt;/font&gt;" style="rounded=0;whiteSpace=wrap;html=1;fontSize=16;fillColor=#ffe6cc;strokeColor=#d79b00;" vertex="1" parent="1">
          <mxGeometry x="555" y="185" width="130" height="20" as="geometry" />
        </mxCell>
        <mxCell id="dkSln4Yl63ti-yWi4KoC-44" value="" style="rounded=0;whiteSpace=wrap;html=1;fontSize=16;" vertex="1" parent="1">
          <mxGeometry x="840" y="680" width="200" height="280" as="geometry" />
        </mxCell>
        <mxCell id="dkSln4Yl63ti-yWi4KoC-45" value="" style="rounded=0;whiteSpace=wrap;html=1;" vertex="1" parent="1">
          <mxGeometry x="680" y="680" width="80" height="40" as="geometry" />
        </mxCell>
        <mxCell id="dkSln4Yl63ti-yWi4KoC-46" value="demoA&lt;br&gt;demoB" style="rounded=0;whiteSpace=wrap;html=1;fillColor=#e1d5e7;strokeColor=#9673a6;" vertex="1" parent="1">
          <mxGeometry x="680" y="720" width="80" height="40" as="geometry" />
        </mxCell>
        <mxCell id="dkSln4Yl63ti-yWi4KoC-47" value="" style="rounded=0;whiteSpace=wrap;html=1;" vertex="1" parent="1">
          <mxGeometry x="680" y="760" width="80" height="40" as="geometry" />
        </mxCell>
        <mxCell id="dkSln4Yl63ti-yWi4KoC-48" value="" style="rounded=0;whiteSpace=wrap;html=1;" vertex="1" parent="1">
          <mxGeometry x="680" y="800" width="80" height="40" as="geometry" />
        </mxCell>
        <mxCell id="dkSln4Yl63ti-yWi4KoC-49" value="" style="rounded=0;whiteSpace=wrap;html=1;" vertex="1" parent="1">
          <mxGeometry x="680" y="840" width="80" height="40" as="geometry" />
        </mxCell>
        <mxCell id="dkSln4Yl63ti-yWi4KoC-50" value="" style="rounded=0;whiteSpace=wrap;html=1;" vertex="1" parent="1">
          <mxGeometry x="680" y="880" width="80" height="40" as="geometry" />
        </mxCell>
        <mxCell id="dkSln4Yl63ti-yWi4KoC-51" value="" style="rounded=0;whiteSpace=wrap;html=1;" vertex="1" parent="1">
          <mxGeometry x="680" y="960" width="80" height="40" as="geometry" />
        </mxCell>
        <mxCell id="dkSln4Yl63ti-yWi4KoC-52" value="&lt;font style=&quot;font-size: 16px&quot;&gt;栈&lt;/font&gt;" style="text;html=1;align=center;verticalAlign=middle;resizable=0;points=[];autosize=1;strokeColor=none;fillColor=none;" vertex="1" parent="1">
          <mxGeometry x="705" y="650" width="30" height="20" as="geometry" />
        </mxCell>
        <mxCell id="dkSln4Yl63ti-yWi4KoC-53" value="&lt;span style=&quot;font-size: 16px&quot;&gt;堆&lt;/span&gt;" style="text;html=1;align=center;verticalAlign=middle;resizable=0;points=[];autosize=1;strokeColor=none;fillColor=none;" vertex="1" parent="1">
          <mxGeometry x="925" y="650" width="30" height="20" as="geometry" />
        </mxCell>
        <mxCell id="dkSln4Yl63ti-yWi4KoC-54" value="&lt;font style=&quot;font-size: 15px&quot;&gt;DemoB的实例对象&lt;br&gt;(new DemoB())&lt;/font&gt;" style="rounded=1;whiteSpace=wrap;html=1;fontSize=16;fillColor=#dae8fc;strokeColor=#6c8ebf;" vertex="1" parent="1">
          <mxGeometry x="870" y="810" width="140" height="50" as="geometry" />
        </mxCell>
        <mxCell id="dkSln4Yl63ti-yWi4KoC-55" value="&lt;font style=&quot;font-size: 16px&quot;&gt;OopMap&lt;/font&gt;" style="text;html=1;align=center;verticalAlign=middle;resizable=0;points=[];autosize=1;strokeColor=none;fillColor=none;" vertex="1" parent="1">
          <mxGeometry x="440" y="650" width="80" height="20" as="geometry" />
        </mxCell>
        <mxCell id="dkSln4Yl63ti-yWi4KoC-56" value="&lt;span style=&quot;font-size: 16px&quot;&gt;方法区&lt;/span&gt;" style="text;html=1;align=center;verticalAlign=middle;resizable=0;points=[];autosize=1;strokeColor=none;fillColor=none;" vertex="1" parent="1">
          <mxGeometry x="910" y="970" width="60" height="20" as="geometry" />
        </mxCell>
        <mxCell id="dkSln4Yl63ti-yWi4KoC-57" value="" style="rounded=0;whiteSpace=wrap;html=1;" vertex="1" parent="1">
          <mxGeometry x="680" y="1000" width="80" height="40" as="geometry" />
        </mxCell>
        <mxCell id="dkSln4Yl63ti-yWi4KoC-58" value="" style="rounded=0;whiteSpace=wrap;html=1;" vertex="1" parent="1">
          <mxGeometry x="680" y="1040" width="80" height="40" as="geometry" />
        </mxCell>
        <mxCell id="dkSln4Yl63ti-yWi4KoC-59" value="" style="rounded=0;whiteSpace=wrap;html=1;fontSize=16;" vertex="1" parent="1">
          <mxGeometry x="840" y="1000" width="200" height="80" as="geometry" />
        </mxCell>
        <mxCell id="dkSln4Yl63ti-yWi4KoC-60" value="栈帧1" style="text;html=1;align=center;verticalAlign=middle;resizable=0;points=[];autosize=1;strokeColor=none;fillColor=none;" vertex="1" parent="1">
          <mxGeometry x="630" y="1010" width="50" height="20" as="geometry" />
        </mxCell>
        <mxCell id="dkSln4Yl63ti-yWi4KoC-61" value="栈帧2" style="text;html=1;align=center;verticalAlign=middle;resizable=0;points=[];autosize=1;strokeColor=none;fillColor=none;" vertex="1" parent="1">
          <mxGeometry x="630" y="970" width="50" height="20" as="geometry" />
        </mxCell>
        <mxCell id="dkSln4Yl63ti-yWi4KoC-62" value="栈帧3" style="text;html=1;align=center;verticalAlign=middle;resizable=0;points=[];autosize=1;strokeColor=none;fillColor=none;" vertex="1" parent="1">
          <mxGeometry x="630" y="930" width="50" height="20" as="geometry" />
        </mxCell>
        <mxCell id="dkSln4Yl63ti-yWi4KoC-63" value="栈帧4" style="text;html=1;align=center;verticalAlign=middle;resizable=0;points=[];autosize=1;strokeColor=none;fillColor=none;" vertex="1" parent="1">
          <mxGeometry x="630" y="890" width="50" height="20" as="geometry" />
        </mxCell>
        <mxCell id="dkSln4Yl63ti-yWi4KoC-64" value="栈帧5" style="text;html=1;align=center;verticalAlign=middle;resizable=0;points=[];autosize=1;strokeColor=none;fillColor=none;" vertex="1" parent="1">
          <mxGeometry x="630" y="850" width="50" height="20" as="geometry" />
        </mxCell>
        <mxCell id="dkSln4Yl63ti-yWi4KoC-65" value="栈帧6" style="text;html=1;align=center;verticalAlign=middle;resizable=0;points=[];autosize=1;strokeColor=none;fillColor=none;" vertex="1" parent="1">
          <mxGeometry x="630" y="810" width="50" height="20" as="geometry" />
        </mxCell>
        <mxCell id="dkSln4Yl63ti-yWi4KoC-66" value="栈帧7" style="text;html=1;align=center;verticalAlign=middle;resizable=0;points=[];autosize=1;strokeColor=none;fillColor=none;" vertex="1" parent="1">
          <mxGeometry x="630" y="770" width="50" height="20" as="geometry" />
        </mxCell>
        <mxCell id="dkSln4Yl63ti-yWi4KoC-67" value="栈帧8" style="text;html=1;align=center;verticalAlign=middle;resizable=0;points=[];autosize=1;strokeColor=none;fillColor=none;" vertex="1" parent="1">
          <mxGeometry x="630" y="730" width="50" height="20" as="geometry" />
        </mxCell>
        <mxCell id="dkSln4Yl63ti-yWi4KoC-68" value="栈帧9" style="text;html=1;align=center;verticalAlign=middle;resizable=0;points=[];autosize=1;strokeColor=none;fillColor=none;" vertex="1" parent="1">
          <mxGeometry x="630" y="690" width="50" height="20" as="geometry" />
        </mxCell>
        <mxCell id="dkSln4Yl63ti-yWi4KoC-69" value="栈帧0" style="text;html=1;align=center;verticalAlign=middle;resizable=0;points=[];autosize=1;strokeColor=none;fillColor=none;" vertex="1" parent="1">
          <mxGeometry x="630" y="1050" width="50" height="20" as="geometry" />
        </mxCell>
        <mxCell id="dkSln4Yl63ti-yWi4KoC-70" style="rounded=0;orthogonalLoop=1;jettySize=auto;html=1;fontSize=11;exitX=1;exitY=0.5;exitDx=0;exitDy=0;" edge="1" parent="1" source="dkSln4Yl63ti-yWi4KoC-71" target="dkSln4Yl63ti-yWi4KoC-46">
          <mxGeometry relative="1" as="geometry" />
        </mxCell>
        <mxCell id="dkSln4Yl63ti-yWi4KoC-71" value="&lt;font style=&quot;font-size: 14px&quot;&gt;栈帧8&lt;br&gt;起始地址：M&lt;br&gt;只有一个OopMap&lt;br&gt;&lt;br&gt;偏移量为a存放：demoA&lt;br&gt;地址：M + a&lt;br&gt;&lt;br&gt;偏移量为b存放：demoB&lt;br&gt;地址：M + b&lt;br&gt;&lt;br&gt;demoA中偏移量为c存放：demoC&lt;br&gt;地址：M + a + c&lt;/font&gt;" style="rounded=0;whiteSpace=wrap;html=1;" vertex="1" parent="1">
          <mxGeometry x="400" y="680" width="160" height="240" as="geometry" />
        </mxCell>
        <mxCell id="dkSln4Yl63ti-yWi4KoC-72" value="&lt;font style=&quot;font-size: 14px&quot;&gt;DemoA.class&lt;/font&gt;" style="rounded=1;whiteSpace=wrap;html=1;fontSize=16;fillColor=#d5e8d4;strokeColor=#82b366;" vertex="1" parent="1">
          <mxGeometry x="845" y="1014" width="90" height="20" as="geometry" />
        </mxCell>
        <mxCell id="dkSln4Yl63ti-yWi4KoC-73" value="&lt;font style=&quot;font-size: 14px&quot;&gt;DemoB.class&lt;/font&gt;" style="rounded=1;whiteSpace=wrap;html=1;fontSize=16;fillColor=#d5e8d4;strokeColor=#82b366;" vertex="1" parent="1">
          <mxGeometry x="945" y="1014" width="90" height="20" as="geometry" />
        </mxCell>
        <mxCell id="dkSln4Yl63ti-yWi4KoC-74" value="&lt;font style=&quot;font-size: 15px&quot;&gt;DemoC的实例对象&lt;br&gt;(new DemoC())&lt;/font&gt;" style="rounded=1;whiteSpace=wrap;html=1;fontSize=16;fillColor=#dae8fc;strokeColor=#6c8ebf;" vertex="1" parent="1">
          <mxGeometry x="870" y="890" width="140" height="50" as="geometry" />
        </mxCell>
        <mxCell id="dkSln4Yl63ti-yWi4KoC-75" style="edgeStyle=orthogonalEdgeStyle;rounded=0;orthogonalLoop=1;jettySize=auto;html=1;entryX=1;entryY=0.5;entryDx=0;entryDy=0;fontSize=11;exitX=1;exitY=0.5;exitDx=0;exitDy=0;" edge="1" parent="1" source="dkSln4Yl63ti-yWi4KoC-80" target="dkSln4Yl63ti-yWi4KoC-74">
          <mxGeometry relative="1" as="geometry" />
        </mxCell>
        <mxCell id="dkSln4Yl63ti-yWi4KoC-76" style="rounded=0;orthogonalLoop=1;jettySize=auto;html=1;fontSize=16;exitX=0.75;exitY=0.25;exitDx=0;exitDy=0;exitPerimeter=0;entryX=0;entryY=0.5;entryDx=0;entryDy=0;" edge="1" parent="1" target="dkSln4Yl63ti-yWi4KoC-79">
          <mxGeometry relative="1" as="geometry">
            <mxPoint x="740" y="733" as="sourcePoint" />
            <mxPoint x="791.6814159292035" y="660" as="targetPoint" />
          </mxGeometry>
        </mxCell>
        <mxCell id="dkSln4Yl63ti-yWi4KoC-77" style="rounded=0;orthogonalLoop=1;jettySize=auto;html=1;entryX=0;entryY=0.5;entryDx=0;entryDy=0;fontSize=16;" edge="1" parent="1" target="dkSln4Yl63ti-yWi4KoC-54">
          <mxGeometry relative="1" as="geometry">
            <mxPoint x="740" y="747" as="sourcePoint" />
            <mxPoint x="870" y="802" as="targetPoint" />
          </mxGeometry>
        </mxCell>
        <mxCell id="dkSln4Yl63ti-yWi4KoC-78" value="&lt;font style=&quot;font-size: 14px&quot;&gt;DemoC.class&lt;/font&gt;" style="rounded=1;whiteSpace=wrap;html=1;fontSize=16;fillColor=#d5e8d4;strokeColor=#82b366;" vertex="1" parent="1">
          <mxGeometry x="895" y="1050" width="90" height="20" as="geometry" />
        </mxCell>
        <mxCell id="dkSln4Yl63ti-yWi4KoC-79" value="&lt;font style=&quot;font-size: 15px&quot;&gt;DemoB的实例对象&lt;br&gt;(new DemoB())&lt;br&gt;&lt;br&gt;&lt;/font&gt;" style="rounded=1;whiteSpace=wrap;html=1;fontSize=16;fillColor=#dae8fc;strokeColor=#6c8ebf;" vertex="1" parent="1">
          <mxGeometry x="870" y="700" width="140" height="80" as="geometry" />
        </mxCell>
        <mxCell id="dkSln4Yl63ti-yWi4KoC-80" value="&lt;font style=&quot;font-size: 11px&quot;&gt;demoC=new DemoC()&lt;/font&gt;" style="rounded=0;whiteSpace=wrap;html=1;fontSize=16;fillColor=#ffe6cc;strokeColor=#d79b00;" vertex="1" parent="1">
          <mxGeometry x="875" y="752" width="130" height="20" as="geometry" />
        </mxCell>
        <mxCell id="dkSln4Yl63ti-yWi4KoC-81" value="&lt;div style=&quot;font-size: 16px&quot;&gt;&lt;font style=&quot;font-size: 16px&quot;&gt;&amp;nbsp; &amp;nbsp; &lt;font color=&quot;#b3b3b3&quot;&gt;// 方法​2存储在栈帧8&lt;/font&gt;&lt;/font&gt;&lt;/div&gt;&lt;div style=&quot;font-size: 16px&quot;&gt;&lt;font style=&quot;font-size: 16px&quot;&gt;&amp;nbsp; &amp;nbsp; &lt;font color=&quot;#ffb366&quot;&gt;public void&lt;/font&gt; &lt;font color=&quot;#ff3333&quot;&gt;testMethod2​&lt;/font&gt;() {&lt;/font&gt;&lt;/div&gt;&lt;div style=&quot;font-size: 16px&quot;&gt;&lt;font style=&quot;font-size: 16px&quot;&gt;&amp;nbsp; &amp;nbsp; &amp;nbsp; &amp;nbsp; &lt;font color=&quot;#b3b3b3&quot;&gt;// 栈里和寄存器内的引用&lt;/font&gt;&lt;/font&gt;&lt;/div&gt;&lt;div style=&quot;font-size: 16px&quot;&gt;&lt;font style=&quot;font-size: 16px&quot;&gt;&amp;nbsp; &amp;nbsp; &amp;nbsp; &amp;nbsp; DemoA demoA = new DemoA();&lt;/font&gt;&lt;/div&gt;&lt;div style=&quot;font-size: 16px&quot;&gt;&lt;font style=&quot;font-size: 16px&quot;&gt;&amp;nbsp; &amp;nbsp; &amp;nbsp; &amp;nbsp; &lt;font color=&quot;#b3b3b3&quot;&gt;// 对象内的引用&lt;/font&gt;&lt;/font&gt;&lt;/div&gt;&lt;div style=&quot;font-size: 16px&quot;&gt;&lt;font style=&quot;font-size: 16px&quot;&gt;&amp;nbsp; &amp;nbsp; &lt;span style=&quot;white-space: pre&quot;&gt; &lt;/span&gt;demoA.setDemoC(new DemoC());&lt;/font&gt;&lt;/div&gt;&lt;div style=&quot;font-size: 16px&quot;&gt;&lt;font style=&quot;font-size: 16px&quot;&gt;&amp;nbsp; &amp;nbsp;&amp;nbsp;&lt;/font&gt;&lt;/div&gt;&lt;div style=&quot;font-size: 16px&quot;&gt;&lt;font style=&quot;font-size: 16px&quot;&gt;&amp;nbsp; &amp;nbsp; &lt;span style=&quot;white-space: pre&quot;&gt; &lt;/span&gt;&lt;font color=&quot;#b3b3b3&quot;&gt;// 栈里和寄存器内的引用&lt;/font&gt;&lt;/font&gt;&lt;/div&gt;&lt;div style=&quot;font-size: 16px&quot;&gt;&lt;font style=&quot;font-size: 16px&quot;&gt;&amp;nbsp; &amp;nbsp; &lt;span style=&quot;white-space: pre&quot;&gt; &lt;/span&gt;DemoA demoB = new DemoB();&lt;/font&gt;&lt;/div&gt;&lt;div style=&quot;font-size: 16px&quot;&gt;&lt;font style=&quot;font-size: 16px&quot;&gt;&amp;nbsp; &amp;nbsp;&amp;nbsp;&lt;/font&gt;&lt;/div&gt;&lt;div style=&quot;font-size: 16px&quot;&gt;&lt;font style=&quot;font-size: 16px&quot;&gt;&amp;nbsp; &amp;nbsp; &lt;span style=&quot;white-space: pre&quot;&gt; &lt;/span&gt;// 方法返回之前插入Safe Point​&lt;/font&gt;&lt;/div&gt;&lt;div style=&quot;font-size: 16px&quot;&gt;&lt;font style=&quot;font-size: 16px&quot;&gt;&amp;nbsp; &amp;nbsp; }&lt;/font&gt;&lt;/div&gt;" style="rounded=0;whiteSpace=wrap;html=1;fontSize=13;fillColor=#F7F7F7;fontColor=#333333;strokeColor=#666666;align=left;" vertex="1" parent="1">
          <mxGeometry x="20" y="680" width="300" height="400" as="geometry" />
        </mxCell>
        <mxCell id="dkSln4Yl63ti-yWi4KoC-82" value="&lt;span style=&quot;font-size: 16px&quot;&gt;代码&lt;/span&gt;" style="text;html=1;align=center;verticalAlign=middle;resizable=0;points=[];autosize=1;strokeColor=none;fillColor=none;" vertex="1" parent="1">
          <mxGeometry x="145" y="650" width="50" height="20" as="geometry" />
        </mxCell>
        <mxCell id="dkSln4Yl63ti-yWi4KoC-83" value="" style="rounded=0;whiteSpace=wrap;html=1;" vertex="1" parent="1">
          <mxGeometry x="680" y="920" width="80" height="40" as="geometry" />
        </mxCell>
        <mxCell id="dkSln4Yl63ti-yWi4KoC-84" style="rounded=0;orthogonalLoop=1;jettySize=auto;html=1;fontSize=11;entryX=0;entryY=0.5;entryDx=0;entryDy=0;" edge="1" parent="1" target="dkSln4Yl63ti-yWi4KoC-71">
          <mxGeometry relative="1" as="geometry">
            <mxPoint x="276" y="970" as="sourcePoint" />
            <mxPoint x="336" y="800" as="targetPoint" />
          </mxGeometry>
        </mxCell>
        <mxCell id="dkSln4Yl63ti-yWi4KoC-86" value="&lt;div style=&quot;text-align: left ; font-size: 13px&quot;&gt;&lt;font style=&quot;font-size: 13px&quot;&gt;MethodAnalyzeDemo demo = new&amp;nbsp; MethodAnalyzeDemo();&lt;/font&gt;&lt;/div&gt;&lt;div style=&quot;text-align: left ; font-size: 13px&quot;&gt;&lt;font style=&quot;font-size: 13px&quot;&gt;&lt;br&gt;&lt;/font&gt;&lt;/div&gt;&lt;div style=&quot;text-align: left ; font-size: 13px&quot;&gt;&lt;font style=&quot;font-size: 13px&quot;&gt;demo.doSomething();&lt;/font&gt;&lt;/div&gt;" style="rounded=0;whiteSpace=wrap;html=1;" vertex="1" parent="1">
          <mxGeometry x="40" y="1200" width="360" height="80" as="geometry" />
        </mxCell>
        <mxCell id="dkSln4Yl63ti-yWi4KoC-87" value="" style="rounded=0;whiteSpace=wrap;html=1;fontSize=13;" vertex="1" parent="1">
          <mxGeometry x="440" y="1200" width="120" height="80" as="geometry" />
        </mxCell>
        <mxCell id="dkSln4Yl63ti-yWi4KoC-88" value="&lt;font style=&quot;font-size: 16px&quot;&gt;栈&lt;/font&gt;" style="text;html=1;strokeColor=none;fillColor=none;align=center;verticalAlign=middle;whiteSpace=wrap;rounded=0;fontSize=13;" vertex="1" parent="1">
          <mxGeometry x="470" y="1170" width="60" height="30" as="geometry" />
        </mxCell>
        <mxCell id="dkSln4Yl63ti-yWi4KoC-89" value="&lt;font style=&quot;font-size: 16px&quot;&gt;栈帧 n&lt;/font&gt;" style="text;html=1;strokeColor=none;fillColor=none;align=center;verticalAlign=middle;whiteSpace=wrap;rounded=0;fontSize=13;" vertex="1" parent="1">
          <mxGeometry x="570" y="1225" width="60" height="30" as="geometry" />
        </mxCell>
      </root>
    </mxGraphModel>
  </diagram>
</mxfile>
